PathFileType	4	(X/Y/Z)	C:\Git\research_data\Projects\torsion_deformities_healthy_kinematics\simulations\P01\pre\dynamic06_l\marker_experimental.trc
DataRate	CameraRate	NumFrames	NumMarkers	Units	OrigDataRate	OrigDataStartFrame	OrigNumFrames
200	200	6	34	mm	200	111	884
Frame#	Time	C7			T10			CLAV			STRN			RBAK			LASI			RASI			SACR			LT1			LT2			LT3			LS1			LS2			LS3			LHEE			LTOE			RT1			RT2			RT3			RS1			RS2			RS3			RHEE			RTOE			LKNE			LANK			RKNE			RANK			LAJC			LKJC			RAJC			RKJC			RHJC			LHJC		
		X1	Y1	Z1	X2	Y2	Z2	X3	Y3	Z3	X4	Y4	Z4	X5	Y5	Z5	X6	Y6	Z6	X7	Y7	Z7	X8	Y8	Z8	X9	Y9	Z9	X10	Y10	Z10	X11	Y11	Z11	X12	Y12	Z12	X13	Y13	Z13	X14	Y14	Z14	X15	Y15	Z15	X16	Y16	Z16	X17	Y17	Z17	X18	Y18	Z18	X19	Y19	Z19	X20	Y20	Z20	X21	Y21	Z21	X22	Y22	Z22	X23	Y23	Z23	X24	Y24	Z24	X25	Y25	Z25	X26	Y26	Z26	X27	Y27	Z27	X28	Y28	Z28	X29	Y29	Z29	X30	Y30	Z30	X31	Y31	Z31	X32	Y32	Z32	X33	Y33	Z33	X34	Y34	Z34	

111	0.550000	-2462.382324	1016.514099	-411.596588	-2493.335449	843.368652	-413.139648	-2343.026855	973.590637	-425.875183	-2303.220459	842.052429	-425.520630	-2471.317383	958.911316	-311.158691	-2361.785400	681.121643	-522.675232	-2375.236328	664.484741	-309.855133	-2517.734863	729.055176	-417.217590	-2342.099609	518.602417	-552.133850	-2375.192627	427.191803	-565.195129	-2246.737305	454.790710	-504.563293	-2310.438477	269.318268	-548.670715	-2395.102051	192.682449	-594.136108	-2271.556152	183.529633	-521.229797	-2394.014160	51.551945	-516.780518	-2252.480957	52.114201	-493.513977	-2452.350830	501.675690	-268.517731	-2520.194092	435.094788	-282.480377	-2380.785645	403.180847	-264.246216	-2526.427246	280.293213	-266.093262	-2644.382812	310.351349	-249.586472	-2563.747803	191.949829	-274.293518	-2751.165771	196.279053	-312.246033	-2672.447998	75.206535	-312.959564	-2314.485107	366.214722	-528.965515	-2336.370361	47.796154	-535.386902	-2462.180420	330.633087	-282.902283	-2726.079590	151.199707	-282.496033	-2344.262207	46.064449	-502.467621	-2316.969482	358.189789	-478.170898	-2721.379639	153.569489	-318.993744	-2453.910400	324.056702	-335.682953	-2444.742801	613.898534	-347.410917	-2434.947048	626.014499	-502.398965	
112	0.555000	-2455.474609	1017.751587	-412.786499	-2486.400146	844.588013	-413.862701	-2336.286377	974.910889	-426.484772	-2296.503418	843.323547	-425.757507	-2465.048584	960.388367	-312.449677	-2355.190186	683.043091	-523.540771	-2368.487061	665.468384	-310.243866	-2510.795410	730.127930	-417.520355	-2336.747070	519.135620	-553.263306	-2370.938965	428.174164	-566.618042	-2242.242432	453.738708	-506.096375	-2308.175537	268.820618	-549.893921	-2393.752197	192.768387	-594.952698	-2270.238525	182.652527	-522.216736	-2393.988525	51.627480	-517.210632	-2252.530762	52.147930	-493.902283	-2443.087891	502.275909	-269.139587	-2509.663574	434.486328	-283.455933	-2370.077148	405.157318	-263.848511	-2514.525879	281.863556	-266.792542	-2632.325439	313.251648	-252.367294	-2552.588135	193.830383	-274.617065	-2739.529297	199.240692	-315.060425	-2661.533936	78.076027	-313.506287	-2311.129150	366.297363	-530.779114	-2336.492920	47.644054	-535.751282	-2450.059570	331.046875	-282.964325	-2715.182129	154.554382	-284.810669	-2344.354492	46.119835	-502.814545	-2313.665283	358.087799	-480.016602	-2709.919678	156.489578	-321.257202	-2441.207031	324.411163	-335.642975	-2437.901533	614.744184	-348.059296	-2428.220255	627.540095	-503.357942	
113	0.560000	-2448.595947	1019.020081	-413.934296	-2479.484375	845.840515	-414.568573	-2329.580566	976.278992	-427.013031	-2289.810791	844.642700	-425.914734	-2458.843018	961.886292	-313.731873	-2348.585693	684.933716	-524.323059	-2361.779541	666.518738	-310.550110	-2503.857178	731.275696	-417.843811	-2331.627441	519.499084	-554.440063	-2367.100342	429.032715	-567.917542	-2238.022217	452.377930	-507.890991	-2306.388184	268.316742	-551.133057	-2393.052490	192.822800	-595.244446	-2269.173828	181.831451	-523.457336	-2393.955322	51.674881	-517.582947	-2252.553711	52.109371	-494.223267	-2434.003906	503.057129	-269.741241	-2499.290771	434.106110	-284.520538	-2359.663818	407.364410	-263.276733	-2502.549561	283.542175	-267.490021	-2620.313965	315.906952	-255.238815	-2541.118896	195.743195	-274.875061	-2727.549561	201.562866	-317.850159	-2649.823242	80.624001	-314.324280	-2308.251953	366.209106	-532.597107	-2336.812988	47.489052	-535.953430	-2438.195312	331.691772	-282.987091	-2703.840332	157.476959	-287.107025	-2344.439209	46.164085	-502.952759	-2310.723877	357.855377	-481.854950	-2698.009277	158.948990	-323.488647	-2428.661621	325.000610	-335.539673	-2431.112152	615.665877	-348.618484	-2421.508133	629.070443	-504.227337	
114	0.565000	-2441.743896	1020.310547	-415.042175	-2472.585938	847.117249	-415.261688	-2322.906494	977.685913	-427.464630	-2283.137451	846.002930	-425.999512	-2452.696533	963.395264	-315.008362	-2341.961182	686.773132	-525.021301	-2355.099121	667.638062	-310.792358	-2496.917969	732.493469	-418.195343	-2326.728271	519.699646	-555.650513	-2363.651367	429.779816	-569.077148	-2234.058350	450.752411	-509.904907	-2305.035400	267.832458	-552.374146	-2392.950684	192.900009	-595.059814	-2268.336182	181.079926	-524.922852	-2393.915771	51.704025	-517.897522	-2252.553223	52.010796	-494.482452	-2425.097168	504.010956	-270.324921	-2489.075195	433.942810	-285.654053	-2349.529785	409.786560	-262.562622	-2490.510742	285.296021	-268.178650	-2608.369629	318.272247	-258.155975	-2529.352295	197.645645	-275.076782	-2715.247314	203.231934	-320.594574	-2637.354980	82.782951	-315.427063	-2305.809814	365.975342	-534.376221	-2337.325195	47.353012	-536.029358	-2426.571777	332.555603	-282.973938	-2692.070557	159.916245	-289.362366	-2344.528809	46.210510	-502.927155	-2308.106201	357.519684	-483.642670	-2685.671631	160.911987	-325.664581	-2416.276611	325.818512	-335.376801	-2424.360999	616.668859	-349.096282	-2414.799800	630.594499	-505.002436	
115	0.570000	-2434.915771	1021.613770	-416.112671	-2465.702637	848.409119	-415.946198	-2316.260742	979.122498	-427.844696	-2276.478027	847.396729	-426.019623	-2446.603516	964.905640	-316.281952	-2335.308105	688.543823	-525.635803	-2348.431641	668.828857	-310.990570	-2489.975098	733.775391	-418.580750	-2322.036865	519.749756	-556.880371	-2360.558350	430.432281	-570.084473	-2230.329102	448.915436	-512.089661	-2304.063232	267.388062	-553.601440	-2393.364746	193.037506	-594.469055	-2267.695801	180.406754	-526.570740	-2393.870850	51.724323	-518.156738	-2252.534668	51.867706	-494.687347	-2416.361572	505.125671	-270.891388	-2479.009521	433.980408	-286.831299	-2339.649170	412.404327	-261.742004	-2478.422363	287.088226	-268.851440	-2596.503662	320.302612	-261.065552	-2517.302002	199.493393	-275.239380	-2702.642822	204.244797	-323.277344	-2624.171875	84.509979	-316.813141	-2303.748291	365.626465	-536.074524	-2338.011230	47.253288	-536.017761	-2415.161133	333.624115	-282.927979	-2679.889160	161.825897	-291.559631	-2344.633301	46.269962	-502.789246	-2305.765137	357.111115	-485.339111	-2672.930420	162.351761	-327.768585	-2404.045654	326.855957	-335.158997	-2417.634216	617.758350	-349.502063	-2408.085415	632.103135	-505.679847	
116	0.575000	-2428.109131	1022.920776	-417.148407	-2458.833252	849.707336	-416.626129	-2309.640381	980.579285	-428.158783	-2269.828125	848.816223	-425.983063	-2440.557373	966.408264	-317.555176	-2328.620850	690.231079	-526.167725	-2341.762451	670.093079	-311.165466	-2483.027100	735.114502	-419.004150	-2317.539307	519.666138	-558.114685	-2357.782471	431.009735	-570.931152	-2226.812988	446.925476	-514.394226	-2303.407715	266.997101	-554.797180	-2394.188477	193.254822	-593.559326	-2267.218750	179.815353	-528.346619	-2393.821533	51.744438	-518.365051	-2252.504395	51.696892	-494.846069	-2407.784668	506.386749	-271.439850	-2469.082275	434.199219	-288.023346	-2329.987549	415.195312	-260.852631	-2466.296143	288.879486	-269.502014	-2584.720215	321.954926	-263.909393	-2504.980957	201.242355	-275.386993	-2689.753662	204.607880	-325.886780	-2610.320557	85.785507	-318.465363	-2302.009521	365.194275	-537.654663	-2338.839111	47.200344	-535.956482	-2403.930664	334.881561	-282.851532	-2667.310547	163.167755	-293.689270	-2344.757324	46.348434	-502.591766	-2303.652100	356.659546	-486.908997	-2659.807617	163.252670	-329.793152	-2391.960693	328.101715	-334.891815	-2410.917297	618.938634	-349.845837	-2401.356973	633.588737	-506.256860	
